<svg xmlns="http://www.w3.org/2000/svg" version="1.1" xmlns:xlink="http://www.w3.org/1999/xlink" width="1000" height="1000"><style>
    #light-icon {
      display: inline;
    }
    #dark-icon {
      display: none;
    }

    @media (prefers-color-scheme: dark) {
      #light-icon {
        display: none;
      }
      #dark-icon {
        display: inline;
      }
    }
  </style><g id="light-icon"><svg xmlns="http://www.w3.org/2000/svg" version="1.1" xmlns:xlink="http://www.w3.org/1999/xlink" width="1000" height="1000"><g><g transform="matrix(2.3529411764705883,0,0,2.3529411764705883,0,0)"><svg xmlns="http://www.w3.org/2000/svg" version="1.1" xmlns:xlink="http://www.w3.org/1999/xlink" width="425" height="425"><svg width="425" height="425" viewBox="0 0 425 425" fill="none" xmlns="http://www.w3.org/2000/svg">
<path d="M83 274C83 292.225 68.2254 307 50 307C31.7746 307 17 292.225 17 274C17 255.774 31.7746 241 50 241C68.2254 241 83 255.774 83 274Z" fill="url(#paint0_radial_395_564)"></path>
<path d="M234.516 327.4C219.783 327.4 207.429 324.907 197.456 319.92C187.709 314.933 180.456 307.68 175.696 298.16C170.936 288.413 168.556 276.4 168.556 262.12V189.7H150.876C145.436 189.7 141.243 188.34 138.296 185.62C135.349 182.673 133.876 178.707 133.876 173.72C133.876 168.507 135.349 164.54 138.296 161.82C141.243 159.1 145.436 157.74 150.876 157.74H168.556V126.8C168.556 119.773 170.369 114.447 173.996 110.82C177.849 107.193 183.176 105.38 189.976 105.38C196.776 105.38 201.989 107.193 205.616 110.82C209.243 114.447 211.056 119.773 211.056 126.8V157.74H247.096C252.536 157.74 256.729 159.1 259.676 161.82C262.623 164.54 264.096 168.507 264.096 173.72C264.096 178.707 262.623 182.673 259.676 185.62C256.729 188.34 252.536 189.7 247.096 189.7H211.056V259.74C211.056 270.62 213.436 278.78 218.196 284.22C222.956 289.66 230.663 292.38 241.316 292.38C245.169 292.38 248.569 292.04 251.516 291.36C254.463 290.68 257.069 290.227 259.336 290C262.056 289.773 264.323 290.68 266.136 292.72C267.949 294.533 268.856 298.387 268.856 304.28C268.856 308.813 268.063 312.893 266.476 316.52C265.116 319.92 262.509 322.3 258.656 323.66C255.709 324.567 251.856 325.36 247.096 326.04C242.336 326.947 238.143 327.4 234.516 327.4Z" fill="url(#paint1_linear_395_564)"></path>
<path d="M329 36C362.137 36 389 62.8629 389 96V152.878C389 156.529 386.501 159.659 383.092 160.965C362.38 168.894 347.886 188.978 347.886 212.5C347.886 236.022 362.38 256.103 383.092 264.033C386.501 265.338 389 268.469 389 272.119V329C389 362.137 362.137 389 329 389H87.4597C59.0393 389 36 365.835 36 337.414C36 329.923 42.0726 323.818 49.5635 323.818C57.0543 323.818 63.1269 329.994 63.1269 337.485C63.1269 350.873 73.9801 361.911 87.3682 361.911H333.873C349.337 361.911 361.873 349.375 361.873 333.911V284.152C337.123 269.849 320.335 243.122 320.335 212.5C320.335 181.878 337.07 155.147 361.821 140.843L361.854 91.1077C361.865 75.6363 349.326 63.0887 333.854 63.0887H91.1795C75.7155 63.0887 63.1795 75.6248 63.1795 91.0887V209.492C63.1795 216.997 57.0951 223.082 49.5897 223.082C42.0843 223.082 36 216.997 36 209.492V96C36 62.8629 62.8629 36 96 36L329 36Z" fill="url(#paint2_linear_395_564)"></path>
<defs>
<radialGradient id="paint0_radial_395_564" cx="0" cy="0" r="1" gradientUnits="userSpaceOnUse" gradientTransform="translate(50 274) rotate(90) scale(33)">
<stop offset="0.1" stop-color="#5EEAD4"></stop>
<stop offset="1" stop-color="#0F766E"></stop>
</radialGradient>
<linearGradient id="paint1_linear_395_564" x1="127.5" y1="333.502" x2="341.045" y2="253.335" gradientUnits="userSpaceOnUse">
<stop offset="0.2" stop-color="#0D9488"></stop>
<stop offset="1" stop-color="#115E59"></stop>
</linearGradient>
<linearGradient id="paint2_linear_395_564" x1="36" y1="389" x2="461.307" y2="232.484" gradientUnits="userSpaceOnUse">
<stop offset="0.2" stop-color="#0D9488"></stop>
<stop offset="1" stop-color="#115E59"></stop>
</linearGradient>
</defs>
</svg></svg></g></g></svg></g><g id="dark-icon"><svg xmlns="http://www.w3.org/2000/svg" version="1.1" xmlns:xlink="http://www.w3.org/1999/xlink" width="1000" height="1000"><g><g transform="matrix(2.3529411764705883,0,0,2.3529411764705883,0,0)" style="filter: contrast(1) brightness(1.2)"><svg xmlns="http://www.w3.org/2000/svg" version="1.1" xmlns:xlink="http://www.w3.org/1999/xlink" width="425" height="425"><svg width="425" height="425" viewBox="0 0 425 425" fill="none" xmlns="http://www.w3.org/2000/svg">
<path d="M83 274C83 292.225 68.2254 307 50 307C31.7746 307 17 292.225 17 274C17 255.774 31.7746 241 50 241C68.2254 241 83 255.774 83 274Z" fill="url(#paint0_radial_394_558)"></path>
<path d="M234.516 327.4C219.783 327.4 207.429 324.907 197.456 319.92C187.709 314.933 180.456 307.68 175.696 298.16C170.936 288.413 168.556 276.4 168.556 262.12V189.7H150.876C145.436 189.7 141.243 188.34 138.296 185.62C135.349 182.673 133.876 178.707 133.876 173.72C133.876 168.507 135.349 164.54 138.296 161.82C141.243 159.1 145.436 157.74 150.876 157.74H168.556V126.8C168.556 119.773 170.369 114.447 173.996 110.82C177.849 107.193 183.176 105.38 189.976 105.38C196.776 105.38 201.989 107.193 205.616 110.82C209.243 114.447 211.056 119.773 211.056 126.8V157.74H247.096C252.536 157.74 256.729 159.1 259.676 161.82C262.623 164.54 264.096 168.507 264.096 173.72C264.096 178.707 262.623 182.673 259.676 185.62C256.729 188.34 252.536 189.7 247.096 189.7H211.056V259.74C211.056 270.62 213.436 278.78 218.196 284.22C222.956 289.66 230.663 292.38 241.316 292.38C245.169 292.38 248.569 292.04 251.516 291.36C254.463 290.68 257.069 290.227 259.336 290C262.056 289.773 264.323 290.68 266.136 292.72C267.949 294.533 268.856 298.387 268.856 304.28C268.856 308.813 268.063 312.893 266.476 316.52C265.116 319.92 262.509 322.3 258.656 323.66C255.709 324.567 251.856 325.36 247.096 326.04C242.336 326.947 238.143 327.4 234.516 327.4Z" fill="url(#paint1_linear_394_558)"></path>
<path d="M329 36C362.137 36 389 62.8629 389 96V152.878C389 156.529 386.501 159.659 383.092 160.965C362.38 168.894 347.886 188.978 347.886 212.5C347.886 236.022 362.38 256.103 383.092 264.033C386.501 265.338 389 268.469 389 272.119V329C389 362.137 362.137 389 329 389H87.4597C59.0393 389 36 365.835 36 337.414C36 329.923 42.0726 323.818 49.5635 323.818C57.0543 323.818 63.1269 329.994 63.1269 337.485C63.1269 350.873 73.9801 361.911 87.3682 361.911H333.873C349.337 361.911 361.873 349.375 361.873 333.911V284.152C337.123 269.849 320.335 243.122 320.335 212.5C320.335 181.878 337.07 155.147 361.821 140.843L361.854 91.1077C361.865 75.6363 349.326 63.0887 333.854 63.0887H91.1703C75.7099 63.0887 63.1754 75.6192 63.1703 91.0795L63.1314 209.52C63.1289 217.011 57.0561 223.082 49.5657 223.082C42.0736 223.082 36 217.008 36 209.516V96C36 62.8629 62.8629 36 96 36L329 36Z" fill="url(#paint2_linear_394_558)"></path>
<defs>
<radialGradient id="paint0_radial_394_558" cx="0" cy="0" r="1" gradientUnits="userSpaceOnUse" gradientTransform="translate(50 274) rotate(90) scale(33)">
<stop offset="0.1" stop-color="#99F6E4"></stop>
<stop offset="1" stop-color="#0D9488"></stop>
</radialGradient>
<linearGradient id="paint1_linear_394_558" x1="124.5" y1="342" x2="346.552" y2="232.812" gradientUnits="userSpaceOnUse">
<stop offset="0.2" stop-color="#14B8A6"></stop>
<stop offset="1" stop-color="#A7F3D0"></stop>
</linearGradient>
<linearGradient id="paint2_linear_394_558" x1="36" y1="389" x2="460.983" y2="188.82" gradientUnits="userSpaceOnUse">
<stop offset="0.2" stop-color="#14B8A6"></stop>
<stop offset="1" stop-color="#A7F3D0"></stop>
</linearGradient>
</defs>
</svg></svg></g></g></svg></g></svg>